<svg xmlns="http://www.w3.org/2000/svg" width="900" height="520" viewBox="0 0 900 520" role="img"><rect width="100%" height="100%" fill="#ffffff"/><text x="45" y="42" font-family="Arial, sans-serif" font-size="26px" text-anchor="start" fill="#17202a">Chest X-ray dataset composition</text><text x="45" y="72" font-family="Arial, sans-serif" font-size="16px" text-anchor="start" fill="#17202a">Expected counts from the repository data contract</text><text x="45" y="98" font-family="Arial, sans-serif" font-size="14px" text-anchor="start" fill="#17202a">Not a fresh scan of the excluded image files</text><line x1="100" y1="415" x2="790" y2="415" stroke="#34495e" stroke-width="2"/><line x1="100" y1="415" x2="790" y2="415" stroke="#d9e1e8" stroke-width="1"/><text x="88" y="420" font-family="Arial, sans-serif" font-size="12px" text-anchor="end" fill="#17202a">0</text><line x1="100" y1="361" x2="790" y2="361" stroke="#d9e1e8" stroke-width="1"/><text x="88" y="366" font-family="Arial, sans-serif" font-size="12px" text-anchor="end" fill="#17202a">250</text><line x1="100" y1="307" x2="790" y2="307" stroke="#d9e1e8" stroke-width="1"/><text x="88" y="312" font-family="Arial, sans-serif" font-size="12px" text-anchor="end" fill="#17202a">500</text><line x1="100" y1="253" x2="790" y2="253" stroke="#d9e1e8" stroke-width="1"/><text x="88" y="258" font-family="Arial, sans-serif" font-size="12px" text-anchor="end" fill="#17202a">750</text><line x1="100" y1="199" x2="790" y2="199" stroke="#d9e1e8" stroke-width="1"/><text x="88" y="204" font-family="Arial, sans-serif" font-size="12px" text-anchor="end" fill="#17202a">1,000</text><line x1="100" y1="145" x2="790" y2="145" stroke="#d9e1e8" stroke-width="1"/><text x="88" y="150" font-family="Arial, sans-serif" font-size="12px" text-anchor="end" fill="#17202a">1,250</text><rect x="175" y="145" width="150" height="270" fill="#3264a8" rx="4"/><text x="250" y="135" font-family="Arial, sans-serif" font-size="14px" text-anchor="middle" fill="#17202a">1,250</text><text x="250" y="445" font-family="Arial, sans-serif" font-size="14px" text-anchor="middle" fill="#17202a">Normal</text><rect x="400" y="172" width="150" height="243" fill="#d97732" rx="4"/><text x="475" y="162" font-family="Arial, sans-serif" font-size="14px" text-anchor="middle" fill="#17202a">1,125</text><text x="475" y="445" font-family="Arial, sans-serif" font-size="14px" text-anchor="middle" fill="#17202a">Lung Opacity</text><rect x="625" y="177.4" width="150" height="237.6" fill="#4f8a5b" rx="4"/><text x="700" y="167.4" font-family="Arial, sans-serif" font-size="14px" text-anchor="middle" fill="#17202a">1,100</text><text x="700" y="445" font-family="Arial, sans-serif" font-size="14px" text-anchor="middle" fill="#17202a">Viral Pneumonia</text><text x="45" y="498" font-family="Arial, sans-serif" font-size="12px" text-anchor="start" fill="#17202a">Source: data/dataset-spec.json</text></svg>
